<?xml version="1.0" standalone="no"?>
<svg viewBox="0 0 200 200" xmlns="http://www.w3.org/2000/svg">
  <path fill="#2F86FF" d="M34.6,-55.6C45.6,-46.9,55.6,-38.4,64.4,-27.1C73.3,-15.7,81.1,-1.5,80.1,12.2C79.1,25.8,69.5,38.8,57.9,47.6C46.3,56.4,32.8,61,19.1,64.9C5.5,68.8,-8.3,72,-19.5,68C-30.8,64.1,-39.5,52.9,-47.4,42C-55.4,31.2,-62.7,20.6,-66.3,8.3C-70,-4,-70.1,-18,-66.6,-32.4C-63.2,-46.9,-56.2,-61.7,-44.5,-70C-32.8,-78.4,-16.4,-80.3,-2.3,-76.7C11.9,-73.2,23.7,-64.3,34.6,-55.6Z" transform="translate(100 100)" />
</svg>
